<svg width="271" height="272" viewBox="0 0 271 272" fill="none" xmlns="http://www.w3.org/2000/svg">
<g clip-path="url(#clip0_52_472)">
<path d="M109.818 126.518L112.492 147.161C112.556 147.45 112.545 147.75 112.458 148.033C112.372 148.316 112.213 148.572 111.998 148.775C111.469 149.397 110.76 149.841 109.969 150.046C109.527 150.193 109.052 150.209 108.601 150.091C108.15 149.974 107.744 149.727 107.431 149.383C106.715 148.859 106.285 148.82 105.708 149.546C105.412 149.93 105.04 150.248 104.615 150.48C104.19 150.712 103.721 150.852 103.238 150.893C102.756 150.933 102.271 150.872 101.814 150.715C101.357 150.557 100.938 150.305 100.584 149.976L96.7443 146.708L92.6796 143.183C92.5369 142.988 92.3255 142.853 92.0876 142.807C91.8497 142.76 91.603 142.806 91.3967 142.934C91.1099 143.127 90.7823 143.25 90.4397 143.295C90.0971 143.339 89.7491 143.303 89.4233 143.189C89.2258 143.169 89.0272 143.219 88.8622 143.33C88.5559 143.748 88.0248 143.911 87.5255 143.591C87.2677 143.453 87.0468 143.254 86.8808 143.013C86.7148 142.772 86.6084 142.495 86.5705 142.204C86.5307 141.945 86.5646 141.649 86.5466 141.36C86.5254 140.976 86.3745 140.61 86.1187 140.323C85.8629 140.036 85.5173 139.844 85.1381 139.779L83.099 139.435L80.7555 139.007L79.2296 138.9C78.2887 138.809 77.3697 138.688 76.4368 138.648C75.5038 138.608 74.712 138.626 73.8387 138.63L69.8204 138.675C67.2954 138.668 64.7725 138.833 62.269 139.166C61.1231 139.292 59.9912 139.337 58.8374 139.411L58.3422 139.462L54.9882 140.039C54.4929 140.09 54.0035 140.007 53.538 140.08C52.1714 140.32 50.7969 140.508 49.4382 140.8C49.2298 140.828 49.03 140.902 48.8537 141.017C48.6774 141.132 48.5292 141.285 48.4196 141.465C48.3101 141.644 48.2421 141.846 48.2208 142.055C48.1995 142.265 48.2254 142.476 48.2965 142.674C48.5075 143.701 48.4 144.035 47.7157 144.407C47.3382 144.58 46.9245 144.658 46.5102 144.635C46.096 144.612 45.6939 144.489 45.3386 144.275C45.1802 144.115 45.0748 143.909 45.0362 143.687C44.9666 143.406 45.0002 143.109 44.9306 142.829C44.8609 142.548 44.7277 141.854 44.1349 141.788C43.5421 141.721 42.9274 141.685 42.5793 142.349C42.3319 142.626 42.1121 142.926 41.923 143.246C40.9614 146.029 38.963 148.334 36.3456 149.681C36.0684 149.834 35.803 150.008 35.5519 150.202C35.3859 150.37 35.192 150.508 34.9789 150.609C33.447 151.24 31.8723 151.761 30.2666 152.167C29.2411 152.463 28.1516 152.449 27.1354 152.126C26.5194 152.001 25.8892 151.956 25.2614 151.995C24.9509 151.996 24.6418 151.955 24.3423 151.874L21.2589 150.766C20.8654 150.629 20.4846 150.458 20.1209 150.255C18.646 149.483 17.3642 148.389 16.3707 147.053C15.4929 146.128 14.8335 145.018 14.4408 143.804C14.3865 143.735 14.3142 143.682 14.2319 143.652C13.1409 141.726 12.6192 139.53 12.7274 137.317C12.6915 136.74 12.4845 136.083 13.2125 135.651C13.2125 135.651 13.2225 135.2 13.2125 134.963C13.1381 134.589 13.1457 134.203 13.235 133.833C13.3243 133.462 13.4931 133.115 13.7296 132.816C13.8042 132.749 13.8639 132.668 13.9046 132.576C14.1181 131.311 14.656 130.123 15.4658 129.127C16.3305 127.727 17.5384 126.572 18.9745 125.77C19.0484 125.703 19.1079 125.622 19.1495 125.531C19.5099 124.972 20.056 124.559 20.6912 124.363C22.0254 123.579 23.517 123.101 25.0575 122.966L25.2069 123.075C27.4661 122.651 29.7931 122.778 31.9903 123.446C32.8656 123.725 33.722 124.06 34.5545 124.449C36.2693 125.198 37.7975 126.316 39.0308 127.723L40.5309 129.555C41.0044 130.223 41.5277 130.009 42.2935 129.651C43.0593 129.293 42.8185 128.933 42.6633 128.268C42.5596 128.021 42.5216 127.751 42.5532 127.484C42.5847 127.218 42.6846 126.964 42.8432 126.747C43.0018 126.53 43.2136 126.358 43.4582 126.247C43.7027 126.136 43.9715 126.091 44.2386 126.115C44.4476 126.073 44.6634 126.08 44.8689 126.137C45.0743 126.193 45.2637 126.296 45.4219 126.439C45.5802 126.581 45.7028 126.759 45.7802 126.957C45.8577 127.156 45.8878 127.37 45.8681 127.582C45.8376 127.851 45.873 128.124 45.9714 128.376C46.0698 128.628 46.2283 128.852 46.4328 129.028C46.6373 129.205 46.8819 129.329 47.1454 129.39C47.4089 129.451 47.6834 129.446 47.9451 129.377C50.4655 129.063 52.964 128.778 55.4684 128.36C57.9729 127.943 60.6406 127.552 63.2247 126.963C65.8087 126.374 68.7031 125.736 71.2632 124.992C71.9834 124.735 72.6893 124.439 73.3778 124.105C74.2113 123.843 75.1123 123.675 75.9676 123.383C76.823 123.09 76.9922 122.984 77.5153 122.77L78.4661 122.409L82.4743 120.75C83.1148 120.438 83.1746 119.793 83.1287 118.979C83.0829 118.165 82.9874 118.233 82.9316 117.87C82.8774 117.699 82.8645 117.516 82.8939 117.338C82.9232 117.16 82.994 116.992 83.1005 116.846C83.207 116.7 83.3464 116.582 83.5071 116.5C83.6678 116.418 83.8454 116.375 84.0256 116.375C84.9367 116.445 85.7543 116.078 86.5918 116.186C87.0946 116.258 87.6074 116.164 88.0523 115.917C88.4972 115.671 88.8498 115.286 89.0564 114.821C90.0012 113.216 91.0952 111.721 92.1812 110.173C93.2672 108.626 94.0191 107.661 94.938 106.405C95.4243 105.858 96.0713 105.481 96.7854 105.326C97.4996 105.172 98.2438 105.249 98.9104 105.546C99.0603 105.632 99.2004 105.735 99.3283 105.851C100.253 106.528 100.795 106.602 101.272 105.574C101.424 105.249 101.642 104.96 101.912 104.723C102.182 104.487 102.498 104.309 102.839 104.201C103.181 104.093 103.541 104.057 103.897 104.095C104.254 104.133 104.598 104.245 104.908 104.423C105.368 104.712 105.806 105.033 106.221 105.383C106.358 105.525 106.45 105.704 106.486 105.899C106.554 106.17 106.597 106.447 106.613 106.726L109.818 126.518Z" stroke="black" stroke-width="0.3" stroke-miterlimit="10"/>
<path d="M115.148 54.9789L126.556 45.6464C136.312 53.977 145.48 61.9227 154.822 69.6291C157.44 71.6114 160.242 73.3381 163.19 74.7857C164.474 75.2897 165.843 75.5433 167.224 75.5329C168.513 75.61 169.805 75.6204 171.095 75.564C170.562 76.9188 170.389 78.7207 169.407 79.563C160.196 87.3955 150.909 95.0808 141.547 102.619C140.534 103.44 138.726 103.219 137.286 103.497C137.653 102.254 137.909 100.982 138.051 99.6948C138.25 97.9834 138.135 96.2508 137.715 94.5816C133.549 81.3203 126.778 69.0304 117.798 58.4326C116.847 57.4156 116.155 56.3582 115.148 54.9789Z" fill="black"/>
<path d="M147.752 123.32C146.728 117.016 145.602 110.728 144.807 104.361C144.718 103.607 146.379 102.526 147.383 101.654C154.095 96.049 160.79 90.3404 167.696 84.9696C168.526 84.4573 169.449 84.1138 170.412 83.9589C171.374 83.804 172.357 83.8408 173.304 84.067C177.364 85.0942 181.33 86.4595 185.161 88.1486C186.975 88.9248 189.798 90.5766 187.033 92.916C174.86 103.295 162.38 113.405 150.049 123.623L147.752 123.32Z" fill="black"/>
<path d="M93.0002 23.9474C91.4413 21.3167 90.2642 18.4768 89.5042 15.513C89.345 14.4782 93.1183 11.6368 94.469 11.9821C96.9351 13.1881 99.1678 14.8213 101.064 16.8063L100.058 18.1822C102.902 18.4265 105.791 18.611 108.63 18.9887C111.089 19.2556 113.454 20.0815 115.544 21.4032C117.634 22.7249 119.393 24.5076 120.687 26.6152C124.905 33.3739 124.223 37.3747 118.254 42.4666C117.838 43.0348 117.124 43.3849 116.53 43.8223C112.762 46.5302 110.085 51.5051 103.848 48.3204C100.822 47.005 98.2411 44.8415 96.4176 42.0902C94.5941 39.3389 93.6052 36.117 93.57 32.8125L104.681 35.6597L105.385 33.6953L93.8541 28.9798L94.3349 23.5004L93.0002 23.9474Z" fill="black"/>
<path d="M199.415 97.6573C195.212 101.149 191.991 103.798 188.749 106.476C178.069 115.316 167.398 124.162 156.738 133.016C154.134 135.198 151.399 136.87 148.729 133.631C146.059 130.393 148.152 128.158 150.662 126.23C164.284 114.935 177.838 103.545 191.624 92.4635C192.641 91.9239 193.769 91.6284 194.918 91.6005C196.068 91.5727 197.207 91.8132 198.247 92.3031C199.245 92.9418 199.021 96.1294 199.415 97.6573Z" fill="black"/>
<path d="M127.411 42.599C122.364 46.8049 118.082 50.4676 113.634 53.9176C112.9 54.4827 111.386 54.1099 110.233 54.1842C110.515 52.9215 110.326 51.1761 111.095 50.4995C115.281 46.7195 119.688 43.0108 124.07 39.6504C124.804 39.0854 126.348 39.48 127.502 39.4057L127.411 42.599Z" fill="black"/>
<path d="M155.167 176.496C168.134 166.284 180.869 156.452 193.311 146.27C197.542 142.555 201.443 138.48 204.969 134.09C205.913 132.383 206.533 130.517 206.796 128.585C207.124 127.448 207.504 126.302 207.832 125.165C208.997 125.636 210.132 126.175 211.232 126.78C211.663 127.183 212.008 127.67 212.247 128.211C218.665 138.599 225.136 148.98 231.437 159.466C232.267 160.899 232.082 162.968 232.233 164.64C230.834 164.055 229.382 163.608 227.896 163.304C225.883 162.974 223.825 163.026 221.829 163.457C203.079 168.705 185.176 176.623 168.669 186.969L163.523 190.184L155.167 176.496Z" stroke="black" stroke-width="0.3" stroke-miterlimit="10"/>
<path d="M226.859 110.615L253.768 154.176C246.31 155.102 239.549 156.079 232.775 156.634C231.836 156.728 230.418 154.91 229.694 153.645C225.221 146.609 220.8 139.564 216.6 132.405C215.77 130.972 215.195 128.439 215.804 127.231C219.097 121.789 222.809 116.653 226.859 110.615Z" stroke="black" stroke-width="0.3" stroke-miterlimit="10"/>
<path d="M252.084 125.854C256.883 133.635 261.631 141.423 266.473 149.144C268.363 152.133 269.026 155.235 265.659 157.272C262.291 159.308 259.87 157.169 258.061 154.194L228.967 107.107C227.226 104.227 226.008 101.132 229.426 98.9024C232.843 96.673 235.612 98.8365 237.431 102.049L252.106 125.824L252.084 125.854Z" stroke="black" stroke-width="0.3" stroke-miterlimit="10"/>
<path d="M145.282 179.55L155.827 196.447C152.084 200.687 148.577 204.918 144.663 209.079C141.582 212.289 138.375 212.79 135.707 208.359C132.391 202.872 129.065 197.379 125.729 191.877C123.108 187.757 124.879 185.149 128.81 183.846C133.952 182.327 139.482 181.092 145.282 179.55Z" stroke="black" stroke-width="0.3" stroke-miterlimit="10"/>
<path d="M117.058 215.379C113.607 217.905 111.105 219.886 108.048 215.171C104.992 210.456 105.631 207.893 111.129 205.762C106.67 201.399 108.095 198.951 112.608 196.1C117.121 193.249 118.657 196.347 120.406 199.968C124.315 196.628 127.438 195.929 130.291 201.046C133.145 206.163 130.913 207.837 125.955 209.353C130.509 213.648 129.819 216.22 125.069 219.081C120.319 221.943 118.946 219.561 117.058 215.379Z" stroke="black" stroke-width="0.3" stroke-miterlimit="10"/>
<path d="M152.033 186.416C149.705 182.647 147.23 178.954 145.145 175.042C144.48 173.821 144.89 172.008 144.784 170.462C146.205 171.088 148.198 171.306 148.92 172.385C154.061 180.324 159.004 188.347 163.807 196.498C164.455 197.615 163.735 199.476 163.678 200.995C162.454 200.1 160.548 199.762 159.788 198.609C157.037 194.668 154.615 190.463 152.106 186.378L152.033 186.416Z" stroke="black" stroke-width="0.3" stroke-miterlimit="10"/>
</g>
<defs>
<clipPath id="clip0_52_472">
<rect width="226.943" height="170.431" fill="white" transform="translate(100.623) rotate(36.1854)"/>
</clipPath>
</defs>
</svg>
