<svg width="744" height="264" viewBox="0 0 744 264" fill="none" xmlns="http://www.w3.org/2000/svg">
<g clip-path="url(#clip0_25_1202)">
<path d="M469.474 97.6834L529.33 89.4228L531.744 121.984L525.262 114.687C523.201 111.981 520.35 109.978 517.102 108.955C513.855 107.932 510.369 107.938 507.125 108.973C503.936 109.615 500.713 110.075 497.471 110.35V145.665C506.436 146.422 510.573 144.013 519.607 132.654V171.686C518.531 170.39 517.563 169.009 516.711 167.556C515.061 164.453 512.284 162.098 508.951 160.972C505.618 159.845 501.98 160.034 498.781 161.498C498.426 161.743 498.126 162.059 497.901 162.427C497.675 162.794 497.529 163.205 497.471 163.632C497.471 173.751 497.471 183.802 497.471 194.197C499.162 194.162 500.852 194.324 502.505 194.678C513.401 198.12 520.366 193.164 525.537 184.146C526.919 181.738 528.69 179.575 530.778 177.744V210.443H532.02C532.987 208.208 533.794 205.908 534.433 203.559C540.87 170.929 547.237 138.299 553.535 105.669C553.535 104.292 553.535 102.984 554.087 101.607C555.348 98.5956 555.455 95.2256 554.387 92.1402C553.318 89.0548 551.149 86.4702 548.294 84.8794L579.395 76.4809C581.187 88.9409 582.705 100.85 584.635 112.622C589.807 143.187 595.186 173.682 600.565 204.178C601.293 207.75 602.332 211.251 603.668 214.642C603.668 215.606 605.392 217.051 606.013 216.914C606.62 216.758 607.184 216.466 607.662 216.061C608.14 215.655 608.519 215.147 608.771 214.573C609.489 212.348 609.861 210.027 609.874 207.689C609.874 191.168 609.874 174.577 609.874 157.987C609.235 153.561 608.102 149.22 606.495 145.045C610.909 145.045 610.702 141.465 610.702 137.748C610.702 120.469 610.702 103.328 610.702 85.9808C610.702 80.1294 610.219 75.1728 603.806 72.9011C603.806 72.9011 603.461 72.2127 603.255 71.7997C603.541 71.5055 603.866 71.2509 604.22 71.0425C618.564 66.7745 632.838 62.4376 647.25 58.3761C649.587 57.3967 652.115 56.9567 654.645 57.0891C657.176 57.2215 659.644 57.9229 661.865 59.1408C664.086 60.3586 666.003 62.0613 667.472 64.1222C668.942 66.1831 669.926 68.5488 670.352 71.0425C671.864 75.9153 672.767 80.9557 673.041 86.0495C673.524 98.303 673.8 110.625 673.455 122.81C672.807 131.828 668.679 140.244 661.939 146.284C657.181 151.103 656.974 152.205 660.215 158.262C664.244 167.529 666.87 177.343 668.007 187.381C670.214 198.327 672.283 209.341 674.903 220.218C675.987 223.899 677.299 227.508 678.833 231.026C683.054 226.352 685.324 220.244 685.178 213.954C685.178 197.088 685.178 180.291 685.178 163.425L685.592 48.9451C686.022 46.1281 685.504 43.2481 684.119 40.7565C682.734 38.2649 680.56 36.3026 677.937 35.1771L710.555 20.6519L711.382 21.2714C710.584 22.8383 709.87 24.4469 709.245 26.0902C707.491 29.6777 706.282 33.5058 705.659 37.4487C705.659 95.1364 705.797 152.847 706.072 210.58C706.028 211.245 706.028 211.912 706.072 212.577C711.589 213.954 717.175 215.468 722.761 216.776C724.289 217.223 725.929 217.073 727.35 216.357C728.771 215.641 729.867 214.413 730.415 212.921C733.932 204.798 737.311 196.675 740.828 188.483C741.607 186.27 742.576 184.128 743.724 182.081V252.229C713.796 240.457 682.213 235.363 652.353 228.479C653.033 224.872 653.219 221.19 652.905 217.533C648.974 200.323 644.561 183.113 640.286 166.11C640.136 164.518 639.512 163.007 638.493 161.773C636.851 160.547 634.884 159.83 632.838 159.708C632.217 159.708 630.907 162.393 630.907 163.907C630.907 180.36 630.424 196.813 630.907 213.265C631.476 216.538 632.62 219.684 634.286 222.559C635.148 224.092 636.116 225.564 637.182 226.964L575.119 218.772C582.498 212.783 579.464 205.968 578.36 199.36C577.809 196.124 577.257 192.958 576.912 189.791C576.925 189.179 576.807 188.572 576.568 188.008C576.328 187.445 575.973 186.939 575.523 186.523C575.074 186.107 574.541 185.79 573.96 185.594C573.38 185.398 572.764 185.327 572.154 185.385C568.223 185.385 564.361 185.385 560.431 184.834C557.879 184.834 556.293 185.454 555.811 188.208C554.914 193.646 553.466 199.015 553.052 204.454C553.193 207.245 553.946 209.971 555.259 212.439C556.246 214.198 557.401 215.858 558.707 217.396L469.887 210.512C470.301 209.617 470.301 208.997 470.646 208.791C472.675 207.148 474.27 205.034 475.292 202.634C476.313 200.234 476.731 197.621 476.508 195.023C476.508 176.023 476.508 157 476.508 137.955C476.508 131.071 476.507 124.531 477.128 117.785C478.036 114.054 477.79 110.137 476.424 106.549C475.057 102.961 472.634 99.8699 469.474 97.6834ZM630.907 138.987C635.183 138.023 639.044 137.335 642.768 136.234C645.247 135.736 647.492 134.433 649.152 132.527C650.811 130.622 651.791 128.222 651.94 125.701C652.537 112.209 652.882 98.7619 652.974 85.3611C653.034 84.2378 652.817 83.1171 652.342 82.0968C651.868 81.0766 651.15 80.1881 650.252 79.5088C649.354 78.8296 648.303 78.3803 647.19 78.2004C646.078 78.0206 644.939 78.1156 643.872 78.4771C640.217 79.3032 636.562 80.2671 632.976 81.4374C632.447 81.7044 631.99 82.0935 631.642 82.5724C631.294 83.0514 631.066 83.6062 630.976 84.1909C630.838 102.02 630.907 120.194 630.907 138.85V138.987ZM573.119 167.831L567.603 125.013H566.706L560.224 167.9L573.119 167.831Z" fill="black"/>
<path d="M-0.206848 251.884C1.03442 249.75 1.93068 247.892 3.03403 246.24C7.49577 239.909 9.90288 232.364 9.92994 224.624C9.92994 198.327 9.93019 172.03 10.6198 145.734C10.8925 138.961 8.87657 132.294 4.89606 126.803C3.86167 125.426 2.96512 123.98 1.79281 122.122L10.6198 122.535C10.6198 120.883 10.6198 119.574 10.6198 118.266C10.6198 89.4456 10.6198 60.5789 10.6198 31.6663C10.9632 22.8836 9.0398 14.1603 5.03411 6.33334C4.15466 4.2821 3.43985 2.16426 2.8964 0L5.72354 1.58339C17.6535 9.01807 29.6523 16.2462 41.4443 23.8874C48.0027 27.9504 54.2078 32.5559 59.9943 37.6553C65.0137 42.1999 69.0013 47.7637 71.6893 53.9734C74.3773 60.1831 75.7036 66.895 75.5792 73.6585C75.5792 84.0533 75.5792 94.3104 75.5792 104.843C75.5974 108.634 74.8425 112.39 73.3606 115.881C71.8787 119.373 69.7008 122.526 66.9593 125.15C65.718 126.321 64.3389 127.422 62.7529 128.799C64.8216 131.14 66.4766 133.067 68.2695 134.857C71.5606 138.077 74.1716 141.923 75.9483 146.168C77.7249 150.413 78.6311 154.97 78.6134 159.57C78.6134 173.338 79.234 187.657 79.0271 201.631C79.0854 209.295 76.6784 216.775 72.1598 222.971C67.6413 229.167 61.2497 233.752 53.9259 236.051C37.2378 241.627 20.2051 246.515 3.31013 251.609C2.15355 251.844 0.972329 251.937 -0.206848 251.884ZM31.1695 216.983L46.2025 212.233C49.237 211.452 51.9149 209.663 53.795 207.161C55.6751 204.658 56.6455 201.591 56.5464 198.465C56.5464 184.697 56.5464 170.447 56.5464 156.404C56.5864 153.094 55.4307 149.88 53.2903 147.351C51.15 144.823 48.1684 143.149 44.8923 142.636C42.5477 142.154 40.1341 141.81 37.9964 141.397C32.8244 140.433 32.066 141.052 32.066 146.353C32.066 165.628 31.6525 184.903 31.4456 204.178L31.1695 216.983ZM31.1695 115.1C34.5485 115.1 37.5139 115.1 40.4102 115.1C42.3498 115.302 44.3102 115.072 46.1499 114.426C47.9896 113.78 49.6623 112.734 51.0478 111.364C52.4334 109.994 53.4969 108.334 54.1616 106.504C54.8263 104.674 55.0756 102.719 54.8914 100.781C54.8914 88.9409 54.8914 77.0316 54.8914 65.1911C54.9642 62.6739 54.4472 60.1745 53.3817 57.8919C52.3162 55.6092 50.7315 53.6063 48.754 52.0428C43.5131 47.9812 37.6518 44.8146 31.3075 40.8219L31.1695 115.1Z" fill="black"/>
<path d="M171.501 217.602L84.6127 229.374C84.4701 228.926 84.4701 228.445 84.6127 227.997C86.7688 225.481 88.3932 222.556 89.3886 219.397C90.384 216.239 90.7301 212.912 90.4055 209.617L90.8192 71.3179C91.0456 63.9312 88.43 56.7382 83.5096 51.2166L84.13 50.4595L117.782 64.2274C109.507 67.7382 110.886 74.209 110.886 80.198C110.886 120.263 110.886 160.305 110.886 200.323V205.28C116.79 204.398 122.638 203.179 128.402 201.631C131.067 200.512 133.226 198.454 134.47 195.849C137.091 190.755 138.815 185.178 141.366 179.809C141.916 178.166 142.949 176.726 144.332 175.679V217.671H145.573C146.47 215.714 147.208 213.688 147.78 211.613C151.503 194.128 155.434 176.643 158.744 159.088C162.606 138.437 165.985 117.785 169.639 97.1327C170.95 89.8357 171.157 82.8829 163.778 77.9264L164.606 77.0315L199.706 85.361C193.637 90.8682 195.982 96.995 197.223 103.122C203.567 134.581 209.774 165.972 216.325 197.363C217.86 202.697 219.82 207.899 222.186 212.921L191.913 215.055C191.913 214.436 191.913 213.816 191.913 213.747C197.223 210.443 196.878 205.762 195.706 200.53C194.533 195.298 193.982 190.479 193.086 185.11C186.81 185.11 180.604 185.11 174.467 185.11C173.95 185.231 173.474 185.486 173.087 185.848C172.7 186.211 172.415 186.668 172.26 187.175C170.485 193.816 169.218 200.582 168.467 207.414C168.806 210.974 169.837 214.435 171.501 217.602ZM189.224 168.451L182.328 122.603H181.707L175.432 168.451H189.224Z" fill="black"/>
<path d="M362.656 208.722H358.932H329.28C335.486 203.972 332.314 199.91 330.107 195.78C325.28 186.624 320.453 177.4 315.557 168.244C314.394 165.947 312.775 163.909 310.799 162.255C310.799 163.494 310.799 164.665 310.799 165.904C310.799 176.161 310.799 186.555 310.799 196.606C310.517 199.005 310.91 201.434 311.933 203.623C312.956 205.811 314.569 207.672 316.591 208.997L286.181 210.649C286.181 209.961 285.836 209.548 286.181 209.479C290.253 203.412 291.946 196.061 290.938 188.827C290.938 180.36 291.421 171.824 290.938 163.357C289.973 147.523 292.801 131.828 292.18 115.995C292.18 109.799 291.559 104.155 285.629 100.575C285.215 100.575 285.077 99.8175 284.25 98.7161L318.108 100.575C309.281 106.977 311.557 115.306 311.212 123.016C311.01 129.563 311.218 136.115 311.833 142.636L314.729 138.024C319.901 129.212 325.004 120.332 330.383 111.658C331.606 110.188 332.275 108.337 332.275 106.426C332.275 104.515 331.606 102.665 330.383 101.194H357.415C357.263 101.818 357.031 102.42 356.726 102.984C348.508 111.746 341.672 121.704 336.452 132.516C334.452 136.165 332.452 139.882 330.245 143.462C329.504 144.586 329.109 145.902 329.109 147.248C329.109 148.594 329.504 149.91 330.245 151.034C337.141 164.802 344.037 178.57 351.76 191.718C354.243 197.57 358.381 202.733 362.656 208.722Z" fill="black"/>
<path d="M434.236 209.341H402.101C402.584 208.378 402.79 207.483 403.342 207.07C405.297 205.51 406.818 203.476 407.759 201.162C408.701 198.848 409.032 196.331 408.721 193.852C408.721 169.208 409.065 144.563 409.134 119.919C409.339 116.448 408.895 112.97 407.824 109.661C406.034 106.7 403.854 103.991 401.342 101.607C401.567 101.439 401.826 101.322 402.101 101.263C413.824 100.85 425.547 100.162 437.27 100.299C444.121 100.246 450.953 101.032 457.613 102.64C461.016 103.439 464.015 105.441 466.056 108.275C468.097 111.109 469.041 114.585 468.715 118.06C468.715 126.94 468.715 135.889 468.715 144.77C468.93 147.656 468.561 150.556 467.629 153.296C466.697 156.036 465.222 158.561 463.291 160.72C461.36 162.879 459.013 164.627 456.391 165.86C453.769 167.094 450.924 167.788 448.028 167.9C443.338 168.52 438.649 168.657 434.236 168.933C430.857 168.933 429.202 170.516 429.271 174.164C429.271 181.599 429.271 188.965 429.271 196.399C429.179 198.78 429.572 201.154 430.425 203.378C431.279 205.603 432.575 207.631 434.236 209.341ZM429.202 114.756V154.545H432.925C435.747 154.402 438.558 154.08 441.339 153.581C443.668 153.304 445.8 152.14 447.291 150.331C448.781 148.523 449.514 146.21 449.338 143.875C449.338 135.958 449.338 127.973 449.338 120.056C449.419 119.379 449.351 118.693 449.139 118.044C448.926 117.396 448.575 116.802 448.108 116.304C447.642 115.806 447.072 115.415 446.439 115.16C445.806 114.904 445.124 114.79 444.441 114.824C439.476 114.618 434.236 114.756 429.271 114.756H429.202Z" fill="black"/>
<path d="M281.491 136.44C277.632 132.978 273.971 129.3 270.527 125.426C268.992 123.093 268.045 120.424 267.768 117.647C267.286 114.411 266.044 112.415 262.596 112.002C259.148 111.589 254.597 110.763 250.598 110.143C245.357 109.386 243.702 110.143 243.702 115.788C243.702 128.661 243.702 141.603 243.702 154.545C243.702 164.94 243.702 175.197 243.702 185.66C243.702 191.236 245.219 193.095 250.598 194.678C253.237 195.551 256.057 195.73 258.787 195.2C261.516 194.669 264.063 193.447 266.182 191.649C271.191 187.503 274.98 182.079 277.147 175.954C276.301 175.995 275.463 175.781 274.742 175.339C274.021 174.897 273.45 174.248 273.104 173.477C272.757 172.706 272.652 171.849 272.802 171.017C272.951 170.186 273.349 169.419 273.942 168.816C274.536 168.214 275.297 167.804 276.128 167.64C276.958 167.476 277.818 167.567 278.597 167.899C279.375 168.231 280.034 168.79 280.489 169.503C280.944 170.215 281.173 171.048 281.146 171.892C281.146 180.36 281.146 188.827 281.146 197.363C281.308 198.992 281.133 200.636 280.633 202.195C280.133 203.754 279.318 205.193 278.239 206.425C277.16 207.657 275.839 208.655 274.359 209.358C272.878 210.061 271.269 210.454 269.63 210.512C260.945 211.704 252.193 212.348 243.426 212.439C237.878 212.331 232.595 210.045 228.723 206.076C224.851 202.108 222.701 196.776 222.738 191.236C222.738 182.7 223.704 174.233 223.083 165.766C222.256 156.744 222.256 147.665 223.083 138.643C223.979 130.451 223.083 121.984 223.083 113.654C222.824 111.08 223.157 108.481 224.056 106.054C224.956 103.628 226.398 101.438 228.274 99.6523C230.149 97.8664 232.408 96.5315 234.878 95.7489C237.349 94.9664 239.966 94.7568 242.529 95.1363C251.287 95.6871 259.976 97.0639 268.665 98.0277C269.993 98.1984 271.337 98.1984 272.665 98.0277C273.486 97.7519 274.363 97.6835 275.217 97.829C276.071 97.9744 276.876 98.3291 277.559 98.8611C278.242 99.3931 278.783 100.086 279.132 100.877C279.481 101.669 279.628 102.535 279.56 103.397C280.457 113.723 281.284 124.049 282.112 134.375C282.526 135.132 281.629 135.821 281.491 136.44Z" fill="black"/>
<path d="M373.758 129.556C379.623 129.479 385.287 131.686 389.548 135.709C393.81 139.732 396.333 145.254 396.584 151.103C396.591 155.33 395.357 159.466 393.034 163C390.71 166.534 387.4 169.31 383.513 170.986C379.625 172.661 375.331 173.161 371.161 172.426C366.992 171.69 363.13 169.75 360.054 166.846C356.977 163.941 354.821 160.201 353.852 156.086C352.883 151.971 353.144 147.663 354.603 143.695C356.061 139.727 358.653 136.272 362.057 133.759C365.462 131.246 369.53 129.785 373.758 129.556ZM383.206 138.781V139.951C378.241 141.19 376.724 145.045 375.482 149.175C375.054 150.433 374.524 151.653 373.896 152.824C371.897 156.266 370.035 156.541 367 153.925C365.626 152.434 364.075 151.117 362.38 150.002C359.622 148.694 359.415 146.973 360.725 144.563C361.208 143.668 361.553 142.705 361.967 141.81C359.828 143.043 358.156 144.945 357.208 147.222C356.261 149.499 356.091 152.024 356.726 154.407C357.497 157.44 359.099 160.2 361.352 162.376C363.606 164.552 366.421 166.059 369.483 166.73C373.763 167.548 378.195 166.864 382.028 164.794C385.861 162.724 388.859 159.395 390.515 155.371C391.954 152.52 392.356 149.258 391.652 146.144C390.947 143.029 389.18 140.256 386.654 138.299C384.468 136.133 381.666 134.693 378.63 134.175C375.594 133.658 372.472 134.088 369.69 135.408L383.206 138.781Z" fill="black"/>
<path d="M682.488 263.793L580.774 254.844V251.196C615.119 250.301 649.404 254.547 682.488 263.793Z" fill="black"/>
<path d="M156.882 251.196C157.641 254.018 157.296 255.533 153.917 255.808L57.3738 264C56.552 264.136 55.7133 264.136 54.8914 264C88.0564 254.669 122.435 250.353 156.882 251.196Z" fill="black"/>
<path d="M188.051 240.388V245.276H195.913V249.819H188.051V255.12H196.947V259.801H182.121V235.638H196.947V240.388H188.051Z" fill="black"/>
<path d="M228.393 259.801H222.531L212.67 244.932V259.801H206.671V235.638H212.601L222.462 250.645V235.638H228.324L228.393 259.801Z" fill="black"/>
<path d="M256.045 235.638V240.388H249.632V259.801H243.771V240.388H237.357V235.638H256.045Z" fill="black"/>
<path d="M270.871 240.388V245.276H278.733V249.819H270.871V255.12H279.767V259.801H264.941V235.638H279.767V240.388H270.871Z" fill="black"/>
<path d="M301.903 259.801L296.938 250.714H295.49V259.801H289.421V235.638H299.352C301.042 235.591 302.721 235.944 304.248 236.671C305.48 237.253 306.512 238.187 307.213 239.355C307.909 240.545 308.266 241.902 308.247 243.279C308.278 244.816 307.792 246.318 306.868 247.547C305.902 248.893 304.482 249.846 302.869 250.232L308.454 259.801H301.903ZM295.49 246.515H299.144C300.015 246.57 300.876 246.3 301.558 245.757C301.842 245.453 302.061 245.096 302.203 244.705C302.345 244.315 302.407 243.9 302.386 243.486C302.409 243.091 302.347 242.697 302.204 242.329C302.062 241.961 301.841 241.627 301.558 241.352C301.235 241.055 300.854 240.828 300.438 240.686C300.023 240.543 299.582 240.489 299.144 240.526H295.49V246.515Z" fill="black"/>
<path d="M335.486 235.638V240.388H329.073V259.801H323.143V240.388H317.005V235.638H335.486Z" fill="black"/>
<path d="M359.415 255.533H350.382L348.933 259.801H342.796L351.554 235.638H358.45L367.208 259.801H360.932L359.415 255.533ZM357.898 250.989L354.933 242.178L351.967 250.989H357.898Z" fill="black"/>
<path d="M381.689 235.638V259.801H375.758V235.638H381.689Z" fill="black"/>
<path d="M413.548 259.801H407.618L397.825 244.932V259.801H391.895V235.638H397.825L407.618 250.645V235.638H413.548V259.801Z" fill="black"/>
<path d="M429.684 240.388V245.276H437.545V249.819H429.684V255.12H438.649V259.801H423.754V235.638H438.649V240.388H429.684Z" fill="black"/>
<path d="M475.611 235.638V259.801H469.681V245.345L464.302 259.801H459.544L454.096 245.276V259.801H448.166V235.638H455.061L461.957 252.366L468.853 235.638H475.611Z" fill="black"/>
<path d="M491.885 240.388V245.276H499.816V249.819H491.885V255.12H500.85V259.801H486.024V235.638H500.85V240.388H491.885Z" fill="black"/>
<path d="M532.295 259.801H526.365L516.504 244.932V259.801H510.642V235.638H516.504L526.365 250.645V235.638H532.295V259.801Z" fill="black"/>
<path d="M559.948 235.638V240.388H553.535V259.801H547.604V240.388H541.26V235.638H559.948Z" fill="black"/>
</g>
<defs>
<clipPath id="clip0_25_1202">
<rect width="744" height="264" fill="white"/>
</clipPath>
</defs>
</svg>
